<svg xmlns="http://www.w3.org/2000/svg" width="48" height="24" fill="none" viewBox="0 0 48 24"><rect width="48" height="24" fill="#00A894" rx="4"/><path fill="#fff" d="M22.918 16.886H12.343v-1.359h4.443v-2.082H13.22v-1.27h1.549v-3.3h-1.6V7.58h8.861v1.295h-1.625v3.3h1.575v1.27h-3.58v2.082h4.519zm-4.113-4.71V8.875h-2.412v3.3zm14.59-2.717h1.56v1.358h-1.56v2.768h-1.626v-6.97h1.625zm0 8.582H25.84v-3.948h7.554zm-5.955-1.295h4.354v-1.384H27.44zm3.644-7.808h-6.856V7.656h2.628V6.552h1.612v1.104h2.616zm-3.428.356q.824 0 1.473.267.647.26 1.009.73t.362 1.072q0 .622-.362 1.098t-1.01.737q-.64.26-1.472.26-.844 0-1.498-.26-.648-.261-1.01-.737a1.77 1.77 0 0 1-.361-1.098q0-.603.361-1.072.362-.47 1.016-.73.654-.267 1.492-.267m0 1.219q-.59 0-.94.228a.69.69 0 0 0-.342.622.75.75 0 0 0 .336.667q.35.234.946.235.597 0 .952-.235a.75.75 0 0 0 .355-.667q0-.4-.361-.622-.356-.228-.946-.228"/></svg>