<svg xmlns="http://www.w3.org/2000/svg" width="48" height="24" fill="none" viewBox="0 0 48 24"><rect width="47" height="23" x=".5" y=".5" stroke="#00A894" rx="3.5"/><path fill="#00A894" d="M13.5 15.413H7.914V7.656H13.5zm-3.96-1.282h2.386V8.926H9.539zm7.477 4.062h-1.638V6.615h1.638zm11.876-1.307H18.318v-1.359h4.444v-2.082h-3.568v-1.27h1.549v-3.3h-1.6V7.58h8.862v1.295H26.38v3.3h1.574v1.27h-3.58v2.082h4.52zm-4.113-4.71V8.875h-2.412v3.3zm13.68-2.717h1.561v1.358h-1.562v2.768h-1.625v-6.97h1.625zm0 8.582h-7.554v-3.948h7.554zm-5.955-1.295h4.355v-1.384h-4.355zm3.644-7.808h-6.855V7.656h2.627V6.552h1.613v1.104h2.615zm-3.428.356q.825 0 1.473.267.647.26 1.01.73.36.47.361 1.072 0 .622-.362 1.098t-1.01.737q-.64.26-1.472.26-.844 0-1.498-.26-.647-.261-1.01-.737a1.77 1.77 0 0 1-.36-1.098q0-.603.36-1.072.362-.47 1.017-.73.653-.267 1.491-.267m0 1.219q-.59 0-.94.228a.69.69 0 0 0-.342.622.75.75 0 0 0 .336.667q.35.234.946.235.597 0 .952-.235a.75.75 0 0 0 .356-.667q0-.4-.362-.622-.355-.228-.946-.228"/></svg>