<svg xmlns="http://www.w3.org/2000/svg" width="20" height="20" fill="none" viewBox="0 0 20 20"><g clip-path="url(#a)"><path stroke="#B2B2B2" stroke-linecap="round" stroke-linejoin="round" stroke-width="2.5" d="M7.5 15.833c-4.167 1.25-4.167-2.083-5.833-2.5m11.666 5v-3.225a2.8 2.8 0 0 0-.783-2.175c2.617-.291 5.367-1.283 5.367-5.833a4.53 4.53 0 0 0-1.25-3.125 4.22 4.22 0 0 0-.075-3.142s-.984-.291-3.259 1.234a11.15 11.15 0 0 0-5.833 0C5.225.542 4.242.833 4.242.833a4.22 4.22 0 0 0-.075 3.142 4.53 4.53 0 0 0-1.25 3.15c0 4.517 2.75 5.508 5.366 5.833a2.8 2.8 0 0 0-.783 2.15v3.225"/></g><defs><clipPath id="a"><path fill="#fff" d="M0 0h20v20H0z"/></clipPath></defs></svg>