<svg width="146" height="28" viewBox="0 0 146 28" fill="none" xmlns="http://www.w3.org/2000/svg">
<path d="M35.6386 7.20536C35.6386 6.95703 35.6622 6.73162 35.7132 6.52914C35.7604 6.32666 35.8625 6.15856 36.0079 6.02485C36.1572 5.89113 36.3694 5.78416 36.6444 5.70775C36.9194 5.63134 37.2848 5.59314 37.7406 5.59314H56.5173C56.973 5.59314 57.3345 5.63134 57.6134 5.70775C57.8885 5.78416 58.1006 5.89113 58.2499 6.02485C58.3992 6.15856 58.4975 6.32666 58.5446 6.52914C58.5918 6.73162 58.6193 6.95703 58.6193 7.20536C58.6193 7.61032 58.525 7.95416 58.3364 8.24069C58.1478 8.52722 57.7195 8.70296 57.0477 8.76027C57.087 8.91309 57.1145 9.0659 57.138 9.22254C57.1577 9.37536 57.1695 9.52818 57.1695 9.68481V10.7201C57.1695 11.7555 56.6508 12.6113 55.6136 13.2837C54.5763 13.956 53.0126 14.2922 50.9184 14.2922H49.5865V15.8472H57.9356C58.4307 15.8472 58.8236 15.8968 59.1182 15.9923C59.4129 16.0878 59.6408 16.2177 59.798 16.382C59.9551 16.5463 60.0612 16.7259 60.1084 16.9283C60.1555 17.1308 60.183 17.3371 60.183 17.5473C60.183 17.8147 60.1594 18.0554 60.1084 18.2655C60.0573 18.4756 59.9551 18.6628 59.798 18.8271C59.6408 18.9914 59.4129 19.1136 59.1182 19.2015C58.8236 19.2894 58.4267 19.3314 57.9356 19.3314H36.4047C35.9097 19.3314 35.5168 19.2894 35.2221 19.2015C34.9274 19.1136 34.6995 18.9914 34.5424 18.8271C34.3852 18.6628 34.2791 18.4756 34.232 18.2655C34.1809 18.0554 34.1573 17.8147 34.1573 17.5473C34.1573 17.3371 34.1809 17.1308 34.232 16.9283C34.2791 16.7259 34.3852 16.5463 34.5424 16.382C34.6995 16.2177 34.9274 16.0878 35.2221 15.9923C35.5168 15.8968 35.9136 15.8472 36.4047 15.8472H44.7853V14.2922H43.4219C41.3278 14.2922 39.7601 13.9713 38.715 13.3295C37.6699 12.6877 37.1434 11.8166 37.1434 10.724V9.68863C37.1434 9.32569 37.1827 9.01624 37.2613 8.76791C36.5697 8.71061 36.1258 8.53869 35.9293 8.24833C35.7329 7.9618 35.6346 7.61414 35.6346 7.213L35.6386 7.20536ZM38.8643 26.7889C38.3103 26.7889 37.8781 26.7354 37.5599 26.6322C37.2455 26.5252 37.0019 26.3839 36.833 26.2005C36.664 26.0171 36.5619 25.807 36.5226 25.5663C36.4833 25.3256 36.4637 25.062 36.4637 24.7755V22.3572C36.4637 21.8758 36.5265 21.4823 36.6562 21.1767C36.7858 20.871 36.9627 20.6303 37.1905 20.4584C37.4184 20.2865 37.6738 20.1719 37.9606 20.1146C38.2474 20.0573 38.55 20.0267 38.8643 20.0267C39.1786 20.0267 39.4811 20.0573 39.768 20.1146C40.0548 20.1719 40.3062 20.2865 40.5223 20.4584C40.7384 20.6303 40.9152 20.871 41.0567 21.1767C41.1942 21.4823 41.2649 21.8758 41.2649 22.3572V23.106H56.2186C56.7098 23.106 57.1066 23.1633 57.4013 23.2779C57.6959 23.3925 57.9238 23.5377 58.081 23.7096C58.2381 23.8815 58.3442 24.0802 58.3914 24.2979C58.4385 24.5195 58.466 24.7258 58.466 24.9169C58.466 25.1652 58.4425 25.402 58.3914 25.6236C58.3403 25.8452 58.2381 26.0401 58.081 26.212C57.9238 26.3839 57.6959 26.5252 57.4013 26.6284C57.1066 26.7354 56.7098 26.785 56.2186 26.785H38.8643V26.7889ZM39.8426 2.7431C39.8426 2.28083 39.9448 1.91407 40.153 1.63518C40.3612 1.35629 40.8091 1.21875 41.5006 1.21875H52.2229C52.9144 1.21875 53.3623 1.36011 53.5705 1.63518C53.7787 1.91407 53.8809 2.28465 53.8809 2.7431C53.8809 3.12896 53.7787 3.46898 53.5705 3.76697C53.3623 4.06497 52.9144 4.21396 52.2229 4.21396H41.5006C40.8091 4.21396 40.3612 4.06497 40.153 3.76697C39.9448 3.46898 39.8426 3.12896 39.8426 2.7431ZM41.8582 10.17C41.8582 10.2846 41.8778 10.4069 41.9171 10.5291C41.9564 10.6552 42.0468 10.7584 42.1843 10.8462C42.3218 10.9341 42.5182 11.0029 42.7776 11.064C43.0329 11.1213 43.3787 11.1519 43.8148 11.1519H50.5059C50.9381 11.1519 51.2838 11.1213 51.5431 11.064C51.7985 11.0067 51.9989 10.9341 52.1364 10.8462C52.2739 10.7584 52.3643 10.6552 52.4036 10.5291C52.4429 10.4031 52.4625 10.2846 52.4625 10.17V9.7383C52.4625 9.48997 52.3682 9.27221 52.1796 9.08883C51.991 8.90545 51.5314 8.79465 50.8045 8.75645H43.9052C43.4494 8.75645 43.084 8.77937 42.809 8.82904C42.534 8.8787 42.3257 8.94365 42.1882 9.03152C42.0507 9.11939 41.9603 9.22254 41.921 9.34862C41.8817 9.47469 41.8621 9.60458 41.8621 9.7383V10.17H41.8582Z" fill="#00D3BA"/>
<path d="M63.1758 4.26723C63.1758 3.98069 63.2112 3.71708 63.278 3.4764C63.3487 3.23571 63.4784 3.02559 63.6787 2.84221C63.8752 2.65883 64.1541 2.51747 64.5078 2.4105C64.8614 2.30353 65.3171 2.25386 65.8711 2.25386H74.8135C75.3675 2.25386 75.8193 2.30735 76.1769 2.4105C76.5305 2.51747 76.8094 2.65883 77.0059 2.84221C77.2023 3.02559 77.3359 3.23571 77.4066 3.4764C77.4734 3.71708 77.5088 3.98069 77.5088 4.26723C77.5088 4.49645 77.4734 4.73332 77.4066 4.974C77.3359 5.21469 77.2023 5.42482 77.0059 5.6082C76.8094 5.79158 76.5305 5.94057 76.1769 6.05519C75.8193 6.1698 75.3675 6.2271 74.8135 6.2271H73.0965V14.1468C73.0965 14.953 73.1633 15.6941 73.3048 16.3627C73.4423 17.0351 73.6702 17.6616 73.9845 18.25C74.2988 18.8345 74.7231 19.4038 75.2575 19.9501C75.7918 20.4964 76.4519 21.0389 77.2416 21.5776C77.8742 22.0207 78.2946 22.5174 78.4989 23.0752C78.7071 23.633 78.6128 24.2175 78.216 24.8326C77.9999 25.1573 77.7367 25.4018 77.4302 25.5661C77.1238 25.7304 76.7937 25.8221 76.4362 25.8412C76.2201 25.8412 75.9922 25.8182 75.7565 25.7686C75.5207 25.7189 75.2928 25.6196 75.0767 25.4668C74.1691 24.8517 73.3637 24.1716 72.6643 23.4228C71.965 22.674 71.3481 21.8985 70.8138 21.0886C70.2991 21.9711 69.7097 22.7887 69.0379 23.5375C68.366 24.2863 67.6077 24.9204 66.7591 25.44C66.2247 25.7648 65.6354 25.9481 64.9832 25.9863C64.6492 26.0054 64.3034 25.9481 63.9459 25.8144C63.5923 25.6807 63.2937 25.4209 63.058 25.0351C62.6611 24.42 62.5708 23.8354 62.7751 23.2777C62.9833 22.7199 63.3998 22.2232 64.0323 21.7801C64.8221 21.2414 65.4821 20.6912 66.0165 20.1258C66.5508 19.5604 66.9752 18.9682 67.2895 18.3531C67.6038 17.738 67.8317 17.0848 67.9692 16.3933C68.1067 15.7018 68.1774 14.953 68.1774 14.1468V6.2271H65.8672C65.3132 6.2271 64.8614 6.1698 64.5038 6.05519C64.1463 5.94057 63.8713 5.79158 63.6748 5.6082C63.4784 5.42482 63.3448 5.21469 63.274 4.974C63.2033 4.73332 63.1719 4.50027 63.1719 4.26723H63.1758ZM80.5891 4.29779C80.5891 3.33886 80.8288 2.68175 81.316 2.32645C81.7993 1.97115 82.3572 1.79541 82.9897 1.79541C83.3041 1.79541 83.6066 1.83361 83.8934 1.91002C84.1802 1.98643 84.4317 2.12015 84.6478 2.31499C84.8639 2.50601 85.0407 2.7658 85.1821 3.09436C85.3196 3.41909 85.3904 3.82406 85.3904 4.30543V11.2166H87.2566C87.8106 11.2166 88.2624 11.2777 88.62 11.4038C88.9736 11.5299 89.2526 11.6865 89.449 11.8775C89.6455 12.0685 89.779 12.2863 89.8498 12.527C89.9205 12.7677 89.9519 13.0007 89.9519 13.2338C89.9519 13.5203 89.9166 13.7915 89.8498 14.0399C89.779 14.2882 89.6455 14.506 89.449 14.6893C89.2526 14.8727 88.9736 15.0217 88.62 15.1363C88.2664 15.251 87.8106 15.3083 87.2566 15.3083H85.3904V23.9768C85.3904 24.4773 85.3196 24.8899 85.1821 25.2146C85.0446 25.5394 84.8678 25.7991 84.6478 25.994C84.4317 26.185 84.1802 26.3187 83.8934 26.399C83.6066 26.4754 83.3041 26.5136 82.9897 26.5136C82.6754 26.5136 82.3729 26.4754 82.0861 26.399C81.7992 26.3225 81.5439 26.1888 81.316 25.994C81.0881 25.803 80.9113 25.5432 80.7816 25.2146C80.652 24.8899 80.5891 24.4735 80.5891 23.9768V4.29779Z" fill="#00D3BA"/>
<path d="M103.777 12.9358C103.027 12.6301 102.276 12.229 101.526 11.74C100.775 11.251 100.115 10.697 99.5416 10.0857C98.9876 10.7772 98.3668 11.3961 97.6753 11.9425C96.9838 12.4888 96.2334 12.909 95.424 13.1956C95.149 13.2911 94.8465 13.3675 94.5204 13.4248C94.1942 13.4821 93.8721 13.4936 93.5577 13.4554C93.2199 13.4171 92.8898 13.3025 92.5637 13.1115C92.2376 12.9205 91.994 12.6225 91.8368 12.2175C91.6011 11.5451 91.609 10.9683 91.8683 10.4907C92.1237 10.0093 92.6069 9.60818 93.3181 9.27962C94.0489 8.95489 94.6461 8.63779 95.1097 8.32834C95.5733 8.0227 95.9387 7.68651 96.2059 7.31975C96.4731 6.95681 96.6538 6.53656 96.752 6.06665C96.8502 5.59673 96.9013 5.02367 96.9013 4.3551V4.01126C96.921 3.54899 96.9995 3.18605 97.1371 2.91862C97.2746 2.65119 97.4592 2.44488 97.6832 2.29971C97.9111 2.15453 98.1704 2.05902 98.469 2.01317C98.7637 1.96733 99.0623 1.94059 99.3569 1.94059C99.6713 1.94059 99.9777 1.96351 100.276 2.01317C100.571 2.06284 100.834 2.16599 101.062 2.33027C101.29 2.49455 101.471 2.71995 101.608 3.00649C101.746 3.29302 101.816 3.67888 101.816 4.15643V4.30161C101.836 5.03131 101.926 5.6273 102.084 6.08575C102.241 6.5442 102.469 6.93388 102.763 7.25098C103.058 7.56807 103.423 7.85461 103.86 8.1144C104.292 8.37418 104.806 8.65689 105.4 8.96253C106.091 9.32929 106.571 9.73808 106.838 10.2003C107.105 10.6626 107.089 11.228 106.795 11.9004C106.461 12.611 105.926 13.0236 105.195 13.1383C104.7 13.1956 104.229 13.1306 103.773 12.9358H103.777ZM98.1232 22.1812V23.3617H112.515C113.069 23.3617 113.521 23.4037 113.879 23.4916C114.236 23.5795 114.511 23.6979 114.708 23.8507C114.904 24.0035 115.038 24.1869 115.108 24.3971C115.179 24.6072 115.21 24.8288 115.21 25.058C115.21 25.3445 115.175 25.5967 115.108 25.8068C115.038 26.0169 114.904 26.1965 114.708 26.3378C114.511 26.483 114.232 26.5938 113.879 26.6702C113.525 26.7466 113.069 26.7848 112.515 26.7848H95.7226C95.1686 26.7848 94.7364 26.7352 94.4182 26.6396C94.1039 26.5441 93.8603 26.4142 93.6913 26.25C93.5224 26.0857 93.4202 25.8908 93.3809 25.6578C93.3416 25.4286 93.322 25.1688 93.322 24.8822V20.5613C93.322 20.3703 93.3456 20.1793 93.3967 19.9845C93.4438 19.7934 93.5499 19.6215 93.707 19.4649C93.8642 19.3121 94.0921 19.1898 94.3868 19.1058C94.6814 19.0217 95.0783 18.9759 95.5694 18.9759H109.812V17.7954H95.5694C95.0743 17.7954 94.6814 17.7571 94.3868 17.6807C94.0921 17.6043 93.8642 17.4935 93.707 17.3484C93.5499 17.2032 93.4438 17.0313 93.3967 16.8288C93.3456 16.6263 93.322 16.4009 93.322 16.1526C93.322 15.9615 93.3456 15.7591 93.3967 15.5489C93.4438 15.3388 93.5499 15.1554 93.707 15.0026C93.8642 14.8498 94.0921 14.7199 94.3868 14.6129C94.6814 14.506 95.0783 14.4563 95.5694 14.4563H112.362C112.853 14.4563 113.25 14.5098 113.545 14.6129C113.839 14.7199 114.067 14.8498 114.224 15.0026C114.381 15.1554 114.487 15.3388 114.535 15.5489C114.582 15.7591 114.609 15.9615 114.609 16.1526V20.5575C114.609 20.8059 114.586 21.0274 114.535 21.2185C114.484 21.4095 114.381 21.5776 114.224 21.7228C114.067 21.8679 113.839 21.9787 113.545 22.0551C113.25 22.1315 112.853 22.1697 112.362 22.1697H98.1193L98.1232 22.1812ZM109.462 4.29779C109.462 3.33886 109.702 2.68175 110.189 2.32645C110.672 1.97115 111.23 1.79541 111.863 1.79541C112.177 1.79541 112.48 1.83361 112.767 1.91002C113.053 1.98643 113.305 2.12015 113.521 2.31499C113.737 2.50601 113.914 2.7658 114.055 3.09436C114.193 3.41909 114.264 3.82406 114.264 4.30543V5.57381H116.424C116.978 5.57381 117.43 5.63494 117.788 5.76101C118.141 5.88709 118.42 6.04372 118.617 6.23475C118.813 6.42577 118.947 6.64353 119.018 6.88422C119.088 7.12491 119.12 7.35795 119.12 7.591C119.12 7.87753 119.084 8.14878 119.018 8.39711C118.947 8.64543 118.813 8.8632 118.617 9.04658C118.42 9.22996 118.141 9.37896 117.788 9.49357C117.434 9.60818 116.978 9.66549 116.424 9.66549H114.264V11.1937C114.264 11.6941 114.193 12.0915 114.055 12.3895C113.918 12.6874 113.741 12.9129 113.521 13.0657C113.305 13.2185 113.053 13.3216 112.767 13.3675C112.48 13.4171 112.177 13.4401 111.863 13.4401C111.549 13.4401 111.246 13.4171 110.959 13.3675C110.672 13.3216 110.417 13.2185 110.189 13.0657C109.961 12.9129 109.784 12.6874 109.655 12.3895C109.525 12.0915 109.462 11.6941 109.462 11.1937V4.29779Z" fill="#00D3BA"/>
<path d="M124.863 21.8068H125.751C126.305 21.8068 126.737 21.8641 127.055 21.9787C127.37 22.0933 127.613 22.2423 127.782 22.4257C127.951 22.6091 128.053 22.8192 128.092 23.0599C128.132 23.3006 128.151 23.5336 128.151 23.7667C128.151 24.0532 128.132 24.3168 128.092 24.5575C128.053 24.7982 127.947 25.0083 127.782 25.1917C127.613 25.3751 127.373 25.5164 127.055 25.6234C126.741 25.7304 126.305 25.78 125.751 25.78H123.441C122.887 25.78 122.454 25.7266 122.136 25.6234C121.822 25.5164 121.578 25.3751 121.409 25.1917C121.24 25.0083 121.138 24.7982 121.099 24.5575C121.06 24.3168 121.04 24.0532 121.04 23.7667V4.15261C121.04 3.86608 121.06 3.60247 121.099 3.36179C121.138 3.1211 121.24 2.91097 121.409 2.72759C121.578 2.54421 121.818 2.40286 122.136 2.29589C122.45 2.18891 122.887 2.13925 123.441 2.13925H125.334C125.888 2.13925 126.32 2.19273 126.639 2.29589C126.953 2.40286 127.197 2.54421 127.366 2.72759C127.535 2.91097 127.637 3.1211 127.676 3.36179C127.715 3.60247 127.735 3.86608 127.735 4.15261C127.735 4.38184 127.715 4.61871 127.676 4.85939C127.637 5.10008 127.531 5.3102 127.366 5.49358C127.197 5.67696 126.957 5.82596 126.639 5.94057C126.324 6.05519 125.888 6.11249 125.334 6.11249H124.859V21.8068H124.863ZM132.324 21.8068H133.389C133.943 21.8068 134.375 21.8641 134.693 21.9787C135.007 22.0933 135.251 22.2423 135.42 22.4257C135.589 22.6091 135.691 22.8192 135.73 23.0599C135.77 23.3006 135.789 23.5336 135.789 23.7667C135.789 24.0532 135.77 24.3168 135.73 24.5575C135.691 24.7982 135.585 25.0083 135.42 25.1917C135.251 25.3751 135.011 25.5164 134.693 25.6234C134.379 25.7304 133.943 25.78 133.389 25.78H130.902C130.348 25.78 129.916 25.7266 129.597 25.6234C129.283 25.5164 129.039 25.3751 128.87 25.1917C128.701 25.0083 128.599 24.7982 128.56 24.5575C128.521 24.3168 128.501 24.0532 128.501 23.7667V4.15261C128.501 3.86608 128.521 3.60247 128.56 3.36179C128.599 3.1211 128.701 2.91097 128.87 2.72759C129.039 2.54421 129.279 2.40286 129.597 2.29589C129.912 2.18891 130.348 2.13925 130.902 2.13925H132.795C133.349 2.13925 133.782 2.19273 134.1 2.29589C134.414 2.40286 134.658 2.54421 134.827 2.72759C134.996 2.91097 135.098 3.1211 135.137 3.36179C135.176 3.60247 135.196 3.86608 135.196 4.15261C135.196 4.38184 135.176 4.61871 135.137 4.85939C135.098 5.10008 134.992 5.3102 134.827 5.49358C134.658 5.67696 134.418 5.82596 134.1 5.94057C133.786 6.05519 133.349 6.11249 132.795 6.11249H132.32V21.8068H132.324ZM136.469 4.29779C136.469 3.33886 136.658 2.68175 137.031 2.32645C137.404 1.97115 137.868 1.79541 138.422 1.79541C138.976 1.79541 139.408 1.97497 139.785 2.32645C140.158 2.68175 140.347 3.33886 140.347 4.29779V10.9224H142.123V4.29779C142.123 3.33886 142.311 2.68175 142.685 2.32645C143.058 1.97115 143.522 1.79541 144.076 1.79541C144.63 1.79541 145.062 1.97497 145.439 2.32645C145.812 2.68175 146.001 3.33886 146.001 4.29779V23.9653C146.001 24.9625 145.812 25.6349 145.439 25.9825C145.062 26.3264 144.61 26.5021 144.076 26.5021C143.541 26.5021 143.058 26.3302 142.685 25.9825C142.308 25.6387 142.123 24.9663 142.123 23.9653V14.8957H140.347V23.9653C140.347 24.9625 140.158 25.6349 139.785 25.9825C139.408 26.3264 138.956 26.5021 138.422 26.5021C137.887 26.5021 137.404 26.3302 137.031 25.9825C136.654 25.6387 136.469 24.9663 136.469 23.9653V4.29779Z" fill="#00D3BA"/>
<path d="M11.2958 3.72109H1.96833C0.915358 3.72109 0.0588379 2.88824 0.0588379 1.86055C0.0588379 0.832853 0.915358 0 1.96833 0H11.2958C12.3527 0 13.2092 0.832853 13.2092 1.86055C13.2092 2.88824 12.3527 3.72109 11.2958 3.72109Z" fill="#00D3BA"/>
<path d="M11.2959 8.83633H1.96847C0.911574 8.83633 0.0550537 8.00348 0.0550537 6.97578H0.0589827C0.0589827 5.94809 0.915503 5.11523 1.9724 5.11523H11.2998C12.3567 5.11523 13.2133 5.94809 13.2133 6.97578C13.2133 8.00348 12.3567 8.83633 11.2998 8.83633H11.2959Z" fill="#00D3BA"/>
<path d="M10.3568 10.3418H2.91138C1.31621 10.3418 0 11.6025 0 13.1727V25.1689C0 26.72 1.32014 27.9998 2.91138 27.9998H10.3529C11.9481 27.9998 13.2643 26.7161 13.2643 25.1689V13.1727C13.2643 11.6025 11.9441 10.3418 10.3529 10.3418H10.3568ZM10.1722 23.0218C10.1722 23.9502 9.37458 24.7257 8.39626 24.7257H4.86802C3.8897 24.7257 3.09212 23.9502 3.09212 23.0218V15.1441C3.09212 14.1928 3.8897 13.4402 4.86802 13.4402H8.39626C9.37458 13.4402 10.1722 14.1928 10.1722 15.1441V23.0218Z" fill="#00D3BA"/>
<path d="M26.2451 22.2655H16.9177C15.8608 22.2655 15.0043 21.4327 15.0043 20.405C15.0043 19.3773 15.8608 18.5444 16.9177 18.5444H26.2451C27.302 18.5444 28.1585 19.3773 28.1585 20.405C28.1585 21.4327 27.302 22.2655 26.2451 22.2655Z" fill="#00D3BA"/>
<path d="M26.2451 17.1532H16.9177C15.8608 17.1532 15.0043 16.3204 15.0043 15.2927C15.0043 14.265 15.8608 13.4321 16.9177 13.4321H26.2451C27.302 13.4321 28.1585 14.265 28.1585 15.2927C28.1585 16.3204 27.302 17.1532 26.2451 17.1532Z" fill="#00D3BA"/>
<path d="M26.2451 27.3808H16.9177C15.8608 27.3808 15.0043 26.5479 15.0043 25.5202C15.0043 24.4925 15.8608 23.6597 16.9177 23.6597H26.2451C27.302 23.6597 28.1585 24.4925 28.1585 25.5202C28.1585 26.5479 27.302 27.3808 26.2451 27.3808Z" fill="#00D3BA"/>
<path d="M25.6951 3.78948L19.1023 10.2002C18.3558 10.926 17.1456 10.926 16.3952 10.2002C15.6487 9.47427 15.6487 8.29758 16.3952 7.56788L22.992 1.1572C23.7385 0.431323 24.9486 0.431323 25.6991 1.1572C26.4456 1.88308 26.4456 3.05978 25.6991 3.78948H25.6951Z" fill="#00D3BA"/>
<path d="M27.1327 8.92399C27.1327 9.92876 26.2959 10.7425 25.2625 10.7425C24.2292 10.7425 23.3923 9.92876 23.3923 8.92399C23.3923 7.91922 24.2292 7.10547 25.2625 7.10547C26.2959 7.10547 27.1327 7.91922 27.1327 8.92399Z" fill="#00D3BA"/>
</svg>
