<svg width="80" height="15" viewBox="0 0 80 15" fill="none" xmlns="http://www.w3.org/2000/svg">
<path d="M19.5279 3.83461C19.5279 3.70246 19.5409 3.5825 19.5688 3.47474C19.5947 3.36699 19.6507 3.27753 19.7303 3.20637C19.8121 3.13521 19.9284 3.07828 20.0791 3.03762C20.2298 2.99696 20.43 2.97663 20.6797 2.97663H30.9683C31.218 2.97663 31.416 2.99696 31.5689 3.03762C31.7196 3.07828 31.8359 3.13521 31.9177 3.20637C31.9995 3.27753 32.0533 3.36699 32.0791 3.47474C32.105 3.5825 32.12 3.70246 32.12 3.83461C32.12 4.05012 32.0684 4.23311 31.965 4.38559C31.8617 4.53808 31.627 4.6316 31.2589 4.6621C31.2804 4.74342 31.2955 4.82475 31.3084 4.90811C31.3192 4.98943 31.3256 5.07076 31.3256 5.15412V5.7051C31.3256 6.25608 31.0414 6.7115 30.4731 7.06933C29.9047 7.42717 29.0479 7.60608 27.9004 7.60608H27.1706V8.43357H31.7454C32.0167 8.43357 32.232 8.46 32.3934 8.51083C32.5549 8.56166 32.6798 8.63079 32.7659 8.71821C32.852 8.80564 32.9101 8.90119 32.936 9.00895C32.9618 9.11671 32.9769 9.2265 32.9769 9.33832C32.9769 9.48064 32.964 9.60873 32.936 9.72055C32.908 9.83237 32.852 9.93199 32.7659 10.0194C32.6798 10.1068 32.5549 10.1719 32.3934 10.2187C32.232 10.2654 32.0145 10.2878 31.7454 10.2878H19.9477C19.6765 10.2878 19.4612 10.2654 19.2997 10.2187C19.1383 10.1719 19.0134 10.1068 18.9273 10.0194C18.8412 9.93199 18.783 9.83237 18.7572 9.72055C18.7292 9.60873 18.7163 9.48064 18.7163 9.33832C18.7163 9.2265 18.7292 9.11671 18.7572 9.00895C18.783 8.90119 18.8412 8.80564 18.9273 8.71821C19.0134 8.63079 19.1383 8.56166 19.2997 8.51083C19.4612 8.46 19.6786 8.43357 19.9477 8.43357H24.5398V7.60608H23.7928C22.6453 7.60608 21.7863 7.4353 21.2136 7.09373C20.641 6.75216 20.3525 6.28861 20.3525 5.70713V5.15615C20.3525 4.963 20.374 4.79832 20.4171 4.66616C20.0382 4.63567 19.7949 4.54418 19.6872 4.38966C19.5796 4.23717 19.5258 4.05216 19.5258 3.83868L19.5279 3.83461ZM21.2954 14.2565C20.9919 14.2565 20.7551 14.228 20.5807 14.1731C20.4085 14.1162 20.275 14.041 20.1824 13.9434C20.0898 13.8458 20.0339 13.734 20.0123 13.6059C19.9908 13.4778 19.98 13.3375 19.98 13.185V11.898C19.98 11.6419 20.0145 11.4325 20.0855 11.2698C20.1566 11.1071 20.2535 10.9791 20.3783 10.8876C20.5032 10.7961 20.6431 10.7351 20.8003 10.7046C20.9574 10.6741 21.1232 10.6578 21.2954 10.6578C21.4677 10.6578 21.6334 10.6741 21.7906 10.7046C21.9478 10.7351 22.0855 10.7961 22.2039 10.8876C22.3224 10.9791 22.4192 11.1071 22.4967 11.2698C22.5721 11.4325 22.6108 11.6419 22.6108 11.898V12.2965H30.8046C31.0737 12.2965 31.2912 12.327 31.4526 12.388C31.6141 12.449 31.739 12.5263 31.8251 12.6178C31.9112 12.7093 31.9693 12.815 31.9952 12.9309C32.021 13.0488 32.0361 13.1586 32.0361 13.2602C32.0361 13.3924 32.0232 13.5185 31.9952 13.6364C31.9672 13.7543 31.9112 13.858 31.8251 13.9495C31.739 14.041 31.6141 14.1162 31.4526 14.1711C31.2912 14.228 31.0737 14.2544 30.8046 14.2544H21.2954V14.2565ZM21.8315 1.4599C21.8315 1.21389 21.8875 1.01871 22.0016 0.870294C22.1157 0.721875 22.3611 0.648682 22.74 0.648682H28.6152C28.9941 0.648682 29.2395 0.723908 29.3536 0.870294C29.4677 1.01871 29.5237 1.21593 29.5237 1.4599C29.5237 1.66525 29.4677 1.8462 29.3536 2.00479C29.2395 2.16337 28.9941 2.24266 28.6152 2.24266H22.74C22.3611 2.24266 22.1157 2.16337 22.0016 2.00479C21.8875 1.8462 21.8315 1.66525 21.8315 1.4599ZM22.9359 5.41233C22.9359 5.47332 22.9467 5.53838 22.9682 5.60344C22.9897 5.67053 23.0393 5.72543 23.1146 5.77219C23.19 5.81895 23.2976 5.85555 23.4397 5.88808C23.5796 5.91858 23.7691 5.93484 24.008 5.93484H27.6744C27.9112 5.93484 28.1006 5.91858 28.2427 5.88808C28.3827 5.85758 28.4925 5.81895 28.5678 5.77219C28.6432 5.72543 28.6927 5.67053 28.7142 5.60344C28.7357 5.53635 28.7465 5.47332 28.7465 5.41233V5.18258C28.7465 5.05043 28.6948 4.93454 28.5915 4.83695C28.4882 4.73936 28.2363 4.6804 27.838 4.66006H24.0576C23.8078 4.66006 23.6076 4.67226 23.4569 4.69869C23.3062 4.72513 23.1921 4.75969 23.1168 4.80645C23.0414 4.85321 22.9919 4.90811 22.9704 4.9752C22.9488 5.04229 22.9381 5.11142 22.9381 5.18258V5.41233H22.9359Z" fill="#B2B2B2"/>
<path d="M34.6167 2.27101C34.6167 2.11852 34.636 1.97824 34.6726 1.85015C34.7114 1.72206 34.7824 1.61024 34.8922 1.51265C34.9999 1.41506 35.1527 1.33983 35.3465 1.2829C35.5402 1.22597 35.79 1.19954 36.0935 1.19954H40.9934C41.297 1.19954 41.5446 1.22801 41.7405 1.2829C41.9342 1.33983 42.0871 1.41506 42.1947 1.51265C42.3024 1.61024 42.3756 1.72206 42.4143 1.85015C42.4509 1.97824 42.4703 2.11852 42.4703 2.27101C42.4703 2.393 42.4509 2.51905 42.4143 2.64714C42.3756 2.77523 42.3024 2.88705 42.1947 2.98464C42.0871 3.08223 41.9342 3.16152 41.7405 3.22252C41.5446 3.28351 41.297 3.31401 40.9934 3.31401H40.0526V7.52871C40.0526 7.9577 40.0892 8.35213 40.1667 8.70793C40.2421 9.06576 40.3669 9.39919 40.5392 9.7123C40.7114 10.0234 40.9439 10.3263 41.2367 10.617C41.5295 10.9078 41.8912 11.1965 42.3239 11.4832C42.6705 11.719 42.9009 11.9833 43.0128 12.2802C43.1269 12.577 43.0752 12.8881 42.8578 13.2154C42.7394 13.3882 42.5952 13.5183 42.4272 13.6058C42.2593 13.6932 42.0785 13.742 41.8826 13.7521C41.7642 13.7521 41.6393 13.7399 41.5101 13.7135C41.3809 13.6871 41.2561 13.6342 41.1377 13.5529C40.6404 13.2256 40.199 12.8637 39.8158 12.4652C39.4326 12.0667 39.0946 11.6539 38.8018 11.2229C38.5198 11.6926 38.1969 12.1277 37.8287 12.5262C37.4606 12.9247 37.0451 13.2622 36.5801 13.5387C36.2873 13.7115 35.9643 13.8091 35.607 13.8294C35.424 13.8396 35.2345 13.8091 35.0386 13.7379C34.8449 13.6668 34.6812 13.5285 34.5521 13.3232C34.3346 12.9958 34.2851 12.6847 34.3971 12.3879C34.5112 12.0911 34.7394 11.8268 35.086 11.5909C35.5187 11.3042 35.8804 11.0115 36.1732 10.7106C36.466 10.4097 36.6985 10.0945 36.8707 9.76719C37.0429 9.43986 37.1678 9.09219 37.2431 8.72419C37.3185 8.35619 37.3572 7.9577 37.3572 7.52871V3.31401H36.0914C35.7878 3.31401 35.5402 3.28351 35.3443 3.22252C35.1484 3.16152 34.9977 3.08223 34.8901 2.98464C34.7824 2.88705 34.7092 2.77523 34.6705 2.64714C34.6317 2.51905 34.6145 2.39503 34.6145 2.27101H34.6167ZM44.1581 2.28727C44.1581 1.77695 44.2895 1.42725 44.5564 1.23817C44.8212 1.04909 45.1269 0.955566 45.4735 0.955566C45.6458 0.955566 45.8115 0.975898 45.9687 1.01656C46.1259 1.05722 46.2636 1.12838 46.382 1.23207C46.5005 1.33373 46.5973 1.47198 46.6748 1.64683C46.7502 1.81965 46.7889 2.03516 46.7889 2.29134V5.96929H47.8115C48.1151 5.96929 48.3627 6.00182 48.5586 6.06891C48.7523 6.13601 48.9052 6.21936 49.0128 6.32102C49.1205 6.42268 49.1937 6.53857 49.2324 6.66665C49.2712 6.79474 49.2884 6.91876 49.2884 7.04278C49.2884 7.19527 49.269 7.33962 49.2324 7.47178C49.1937 7.60393 49.1205 7.71982 49.0128 7.81741C48.9052 7.915 48.7523 7.99429 48.5586 8.05529C48.3648 8.11628 48.1151 8.14678 47.8115 8.14678H46.7889V12.76C46.7889 13.0263 46.7502 13.2459 46.6748 13.4187C46.5995 13.5915 46.5026 13.7298 46.382 13.8335C46.2636 13.9351 46.1259 14.0063 45.9687 14.049C45.8115 14.0896 45.6458 14.11 45.4735 14.11C45.3013 14.11 45.1355 14.0896 44.9784 14.049C44.8212 14.0083 44.6813 13.9372 44.5564 13.8335C44.4316 13.7318 44.3347 13.5936 44.2636 13.4187C44.1926 13.2459 44.1581 13.0243 44.1581 12.76V2.28727Z" fill="#B2B2B2"/>
<path d="M56.8639 6.8842C56.4527 6.72155 56.0415 6.50807 55.6303 6.24783C55.2191 5.98759 54.8574 5.69278 54.5431 5.36748C54.2395 5.73548 53.8994 6.06485 53.5205 6.35558C53.1415 6.64632 52.7304 6.86997 52.2869 7.02245C52.1362 7.07328 51.9704 7.11394 51.7917 7.14444C51.613 7.17494 51.4365 7.18104 51.2643 7.16071C51.0791 7.14038 50.8983 7.07938 50.7196 6.97772C50.5409 6.87607 50.4074 6.71748 50.3213 6.50197C50.1921 6.14414 50.1964 5.83713 50.3385 5.58299C50.4785 5.32682 50.7433 5.11334 51.1329 4.93849C51.5334 4.76567 51.8606 4.59692 52.1146 4.43223C52.3687 4.26958 52.5689 4.09067 52.7153 3.89549C52.8617 3.70234 52.9607 3.47869 53.0145 3.22862C53.0684 2.97854 53.0963 2.67357 53.0963 2.31777V2.13479C53.1071 1.88878 53.1502 1.69563 53.2255 1.55331C53.3009 1.41099 53.402 1.3012 53.5248 1.22394C53.6496 1.14668 53.7917 1.09585 53.9553 1.07146C54.1168 1.04706 54.2804 1.03283 54.4419 1.03283C54.6141 1.03283 54.782 1.04502 54.9456 1.07146C55.1071 1.09789 55.2514 1.15278 55.3762 1.24021C55.5011 1.32763 55.6001 1.44759 55.6755 1.60007C55.7508 1.75256 55.7896 1.9579 55.7896 2.21205V2.28931C55.8003 2.67764 55.8498 2.9948 55.936 3.23878C56.0221 3.48276 56.1469 3.69014 56.3084 3.85889C56.4699 4.02764 56.6701 4.18012 56.9091 4.31838C57.1459 4.45663 57.4279 4.60708 57.753 4.76973C58.1319 4.96492 58.3945 5.18246 58.5409 5.42847C58.6873 5.67448 58.6787 5.97539 58.5173 6.33322C58.3343 6.71138 58.0415 6.93096 57.641 6.99196C57.3698 7.02245 57.1114 6.98789 56.8617 6.8842H56.8639ZM53.7659 11.8044V12.4326H61.6518C61.9554 12.4326 62.203 12.455 62.3989 12.5018C62.5948 12.5485 62.7455 12.6116 62.8531 12.6929C62.9608 12.7742 63.034 12.8718 63.0727 12.9836C63.1115 13.0954 63.1287 13.2134 63.1287 13.3353C63.1287 13.4878 63.1093 13.622 63.0727 13.7338C63.034 13.8457 62.9608 13.9412 62.8531 14.0165C62.7455 14.0937 62.5926 14.1527 62.3989 14.1933C62.2051 14.234 61.9554 14.2543 61.6518 14.2543H52.4505C52.1469 14.2543 51.9101 14.2279 51.7357 14.1771C51.5635 14.1262 51.43 14.0571 51.3375 13.9697C51.2449 13.8823 51.1889 13.7786 51.1674 13.6546C51.1458 13.5326 51.1351 13.3943 51.1351 13.2418V10.9423C51.1351 10.8407 51.148 10.739 51.176 10.6353C51.2018 10.5337 51.2599 10.4422 51.3461 10.3588C51.4322 10.2775 51.557 10.2124 51.7185 10.1677C51.88 10.123 52.0974 10.0986 52.3665 10.0986H60.1706V9.47035H52.3665C52.0953 9.47035 51.88 9.45002 51.7185 9.40936C51.557 9.3687 51.4322 9.30973 51.3461 9.23248C51.2599 9.15522 51.2018 9.06372 51.176 8.95597C51.148 8.84821 51.1351 8.72826 51.1351 8.5961C51.1351 8.49445 51.148 8.38669 51.176 8.27487C51.2018 8.16304 51.2599 8.06545 51.3461 7.98413C51.4322 7.9028 51.557 7.83368 51.7185 7.77675C51.88 7.71982 52.0974 7.69339 52.3665 7.69339H61.5679C61.837 7.69339 62.0544 7.72185 62.2159 7.77675C62.3773 7.83368 62.5022 7.9028 62.5883 7.98413C62.6744 8.06545 62.7326 8.16304 62.7584 8.27487C62.7842 8.38669 62.7993 8.49445 62.7993 8.5961V10.9403C62.7993 11.0725 62.7864 11.1904 62.7584 11.292C62.7304 11.3937 62.6744 11.4832 62.5883 11.5604C62.5022 11.6377 62.3773 11.6966 62.2159 11.7373C62.0544 11.778 61.837 11.7983 61.5679 11.7983H53.7637L53.7659 11.8044ZM59.979 2.28727C59.979 1.77695 60.1104 1.42725 60.3773 1.23817C60.6421 1.04909 60.9478 0.955566 61.2944 0.955566C61.4667 0.955566 61.6324 0.975898 61.7896 1.01656C61.9468 1.05722 62.0845 1.12838 62.2029 1.23207C62.3214 1.33373 62.4182 1.47198 62.4957 1.64683C62.5711 1.81965 62.6098 2.03516 62.6098 2.29134V2.96634H63.7939C64.0975 2.96634 64.345 2.99887 64.541 3.06596C64.7347 3.13306 64.8876 3.21642 64.9952 3.31807C65.1029 3.41973 65.1761 3.53562 65.2148 3.66371C65.2536 3.7918 65.2708 3.91582 65.2708 4.03984C65.2708 4.19232 65.2514 4.33668 65.2148 4.46883C65.1761 4.60098 65.1029 4.71687 64.9952 4.81446C64.8876 4.91205 64.7347 4.99135 64.541 5.05234C64.3472 5.11334 64.0975 5.14383 63.7939 5.14383H62.6098V5.95709C62.6098 6.22343 62.5711 6.43488 62.4957 6.59346C62.4204 6.75205 62.3235 6.872 62.2029 6.95333C62.0845 7.03465 61.9468 7.08955 61.7896 7.11394C61.6324 7.14038 61.4667 7.15257 61.2944 7.15257C61.1222 7.15257 60.9564 7.14038 60.7993 7.11394C60.6421 7.08955 60.5022 7.03465 60.3773 6.95333C60.2525 6.872 60.1556 6.75205 60.0845 6.59346C60.0135 6.43488 59.979 6.22343 59.979 5.95709V2.28727Z" fill="#B2B2B2"/>
<path d="M68.4176 11.6051H68.9042C69.2077 11.6051 69.4445 11.6356 69.6189 11.6966C69.7911 11.7576 69.9246 11.8369 70.0172 11.9345C70.1098 12.0321 70.1657 12.1439 70.1873 12.272C70.2088 12.4001 70.2196 12.5241 70.2196 12.6481C70.2196 12.8006 70.2088 12.9409 70.1873 13.069C70.1657 13.1971 70.1076 13.3089 70.0172 13.4065C69.9246 13.5041 69.7933 13.5793 69.6189 13.6363C69.4467 13.6932 69.2077 13.7196 68.9042 13.7196H67.6383C67.3347 13.7196 67.0979 13.6911 66.9235 13.6363C66.7513 13.5793 66.6178 13.5041 66.5252 13.4065C66.4327 13.3089 66.3767 13.1971 66.3552 13.069C66.3336 12.9409 66.3229 12.8006 66.3229 12.6481V2.21001C66.3229 2.05753 66.3336 1.91724 66.3552 1.78915C66.3767 1.66107 66.4327 1.54924 66.5252 1.45165C66.6178 1.35406 66.7491 1.27884 66.9235 1.22191C67.0958 1.16498 67.3347 1.13855 67.6383 1.13855H68.676C68.9795 1.13855 69.2163 1.16701 69.3907 1.22191C69.5629 1.27884 69.6964 1.35406 69.789 1.45165C69.8816 1.54924 69.9375 1.66107 69.9591 1.78915C69.9806 1.91724 69.9914 2.05753 69.9914 2.21001C69.9914 2.332 69.9806 2.45806 69.9591 2.58614C69.9375 2.71423 69.8794 2.82605 69.789 2.92365C69.6964 3.02124 69.5651 3.10053 69.3907 3.16152C69.2185 3.22252 68.9795 3.25301 68.676 3.25301H68.4155V11.6051H68.4176ZM72.5059 11.6051H73.0893C73.3929 11.6051 73.6297 11.6356 73.8041 11.6966C73.9763 11.7576 74.1098 11.8369 74.2024 11.9345C74.2949 12.0321 74.3509 12.1439 74.3724 12.272C74.394 12.4001 74.4047 12.5241 74.4047 12.6481C74.4047 12.8006 74.394 12.9409 74.3724 13.069C74.3509 13.1971 74.2928 13.3089 74.2024 13.4065C74.1098 13.5041 73.9785 13.5793 73.8041 13.6363C73.6318 13.6932 73.3929 13.7196 73.0893 13.7196H71.7266C71.423 13.7196 71.1862 13.6911 71.0118 13.6363C70.8396 13.5793 70.7061 13.5041 70.6135 13.4065C70.521 13.3089 70.465 13.1971 70.4435 13.069C70.4219 12.9409 70.4112 12.8006 70.4112 12.6481V2.21001C70.4112 2.05753 70.4219 1.91724 70.4435 1.78915C70.465 1.66107 70.521 1.54924 70.6135 1.45165C70.7061 1.35406 70.8374 1.27884 71.0118 1.22191C71.184 1.16498 71.423 1.13855 71.7266 1.13855H72.7642C73.0678 1.13855 73.3046 1.16701 73.479 1.22191C73.6512 1.27884 73.7847 1.35406 73.8773 1.45165C73.9699 1.54924 74.0258 1.66107 74.0473 1.78915C74.0689 1.91724 74.0796 2.05753 74.0796 2.21001C74.0796 2.332 74.0689 2.45806 74.0473 2.58614C74.0258 2.71423 73.9677 2.82605 73.8773 2.92365C73.7847 3.02124 73.6534 3.10053 73.479 3.16152C73.3068 3.22252 73.0678 3.25301 72.7642 3.25301H72.5038V11.6051H72.5059ZM74.7772 2.28727C74.7772 1.77695 74.8805 1.42725 75.085 1.23817C75.2896 1.04909 75.5436 0.955566 75.8471 0.955566C76.1507 0.955566 76.3875 1.05112 76.5942 1.23817C76.7987 1.42725 76.902 1.77695 76.902 2.28727V5.81274H77.8751V2.28727C77.8751 1.77695 77.9785 1.42725 78.183 1.23817C78.3875 1.04909 78.6416 0.955566 78.9451 0.955566C79.2487 0.955566 79.4855 1.05112 79.6922 1.23817C79.8967 1.42725 80 1.77695 80 2.28727V12.7539C80 13.2845 79.8967 13.6424 79.6922 13.8274C79.4855 14.0104 79.2379 14.1039 78.9451 14.1039C78.6523 14.1039 78.3875 14.0124 78.183 13.8274C77.9763 13.6444 77.8751 13.2866 77.8751 12.7539V7.9272H76.902V12.7539C76.902 13.2845 76.7987 13.6424 76.5942 13.8274C76.3875 14.0104 76.1399 14.1039 75.8471 14.1039C75.5544 14.1039 75.2896 14.0124 75.085 13.8274C74.8784 13.6444 74.7772 13.2866 74.7772 12.7539V2.28727Z" fill="#B2B2B2"/>
<path d="M6.18941 1.98028H1.07852C0.501551 1.98028 0.0322266 1.53705 0.0322266 0.990139C0.0322266 0.443224 0.501551 0 1.07852 0H6.18941C6.76853 0 7.23786 0.443224 7.23786 0.990139C7.23786 1.53705 6.76853 1.98028 6.18941 1.98028Z" fill="#B2B2B2"/>
<path d="M6.18949 4.70245H1.0786C0.499476 4.70245 0.0301514 4.25922 0.0301514 3.71231H0.0323042C0.0323042 3.16539 0.501628 2.72217 1.08075 2.72217H6.19165C6.77077 2.72217 7.24009 3.16539 7.24009 3.71231C7.24009 4.25922 6.77077 4.70245 6.19165 4.70245H6.18949Z" fill="#B2B2B2"/>
<path d="M5.67495 5.50366H1.59527C0.721209 5.50366 0 6.1746 0 7.01022V13.3943C0 14.2197 0.723362 14.9008 1.59527 14.9008H5.67279C6.54686 14.9008 7.26806 14.2177 7.26806 13.3943V7.01022C7.26806 6.1746 6.5447 5.50366 5.67279 5.50366H5.67495ZM5.57376 12.2517C5.57376 12.7457 5.13673 13.1584 4.60067 13.1584H2.6674C2.13133 13.1584 1.6943 12.7457 1.6943 12.2517V8.05932C1.6943 7.55307 2.13133 7.15254 2.6674 7.15254H4.60067C5.13673 7.15254 5.57376 7.55307 5.57376 8.05932V12.2517Z" fill="#B2B2B2"/>
<path d="M14.3808 11.8494H9.26988C8.69076 11.8494 8.22144 11.4062 8.22144 10.8593C8.22144 10.3124 8.69076 9.86914 9.26988 9.86914H14.3808C14.9599 9.86914 15.4292 10.3124 15.4292 10.8593C15.4292 11.4062 14.9599 11.8494 14.3808 11.8494Z" fill="#B2B2B2"/>
<path d="M14.3808 9.12896H9.26988C8.69076 9.12896 8.22144 8.68573 8.22144 8.13882C8.22144 7.59191 8.69076 7.14868 9.26988 7.14868H14.3808C14.9599 7.14868 15.4292 7.59191 15.4292 8.13882C15.4292 8.68573 14.9599 9.12896 14.3808 9.12896Z" fill="#B2B2B2"/>
<path d="M14.3808 14.5713H9.26988C8.69076 14.5713 8.22144 14.1281 8.22144 13.5812C8.22144 13.0343 8.69076 12.5911 9.26988 12.5911H14.3808C14.9599 12.5911 15.4292 13.0343 15.4292 13.5812C15.4292 14.1281 14.9599 14.5713 14.3808 14.5713Z" fill="#B2B2B2"/>
<path d="M14.0795 2.01697L10.467 5.42858C10.0579 5.81488 9.39486 5.81488 8.98366 5.42858C8.57462 5.04228 8.57462 4.41608 8.98366 4.02775L12.5983 0.616138C13.0074 0.229842 13.6704 0.229842 14.0816 0.616138C14.4907 1.00243 14.4907 1.62864 14.0816 2.01697H14.0795Z" fill="#B2B2B2"/>
<path d="M14.8673 4.74951C14.8673 5.28423 14.4087 5.71729 13.8425 5.71729C13.2763 5.71729 12.8177 5.28423 12.8177 4.74951C12.8177 4.2148 13.2763 3.78174 13.8425 3.78174C14.4087 3.78174 14.8673 4.2148 14.8673 4.74951Z" fill="#B2B2B2"/>
</svg>
