<svg xmlns="http://www.w3.org/2000/svg" width="80" height="15" fill="none" viewBox="0 0 80 15"><path fill="#B2B2B2" d="M19.528 3.835q0-.199.04-.36a.5.5 0 0 1 .162-.269.9.9 0 0 1 .35-.168q.225-.061.6-.061h10.288q.373 0 .6.06.227.062.35.17.122.106.161.268.04.16.041.36a.96.96 0 0 1-.155.55q-.154.23-.706.277.031.122.05.246.016.122.017.246v.551q0 .828-.853 1.364-.852.537-2.573.537h-.73v.828h4.575q.407 0 .648.077a.9.9 0 0 1 .373.207.6.6 0 0 1 .17.291q.04.161.04.33.001.213-.04.382a.64.64 0 0 1-.17.298.84.84 0 0 1-.373.2q-.243.069-.648.069H19.948q-.406 0-.648-.07a.84.84 0 0 1-.373-.199.6.6 0 0 1-.17-.298 1.6 1.6 0 0 1 0-.712.6.6 0 0 1 .17-.29.9.9 0 0 1 .373-.208q.243-.077.648-.077h4.592v-.828h-.747q-1.721 0-2.58-.512-.859-.514-.86-1.387v-.55q0-.292.064-.49-.568-.046-.73-.277a.93.93 0 0 1-.161-.551zm1.767 10.422q-.454 0-.714-.084a.95.95 0 0 1-.399-.23.63.63 0 0 1-.17-.337 2.6 2.6 0 0 1-.032-.421v-1.287q0-.384.105-.628a.9.9 0 0 1 .293-.382q.187-.138.422-.183a2.6 2.6 0 0 1 .99 0q.237.045.414.183.176.138.293.382a1.5 1.5 0 0 1 .114.628v.399h8.194q.404 0 .648.091a1 1 0 0 1 .372.23.67.67 0 0 1 .17.313 1.56 1.56 0 0 1 0 .705.7.7 0 0 1-.17.314.9.9 0 0 1-.372.221q-.244.084-.648.083h-9.51zm.536-12.797q0-.368.17-.59.171-.221.739-.221h5.875q.569.001.739.221.17.224.17.59a.9.9 0 0 1-.17.545q-.17.238-.739.238H22.74q-.568 0-.738-.238a.9.9 0 0 1-.17-.545m1.105 3.952q0 .092.032.191a.32.32 0 0 0 .147.17q.112.068.325.115.21.046.568.047h3.666q.356 0 .569-.047.211-.045.325-.116a.32.32 0 0 0 .146-.169.6.6 0 0 0 .033-.19v-.23a.46.46 0 0 0-.155-.346q-.156-.147-.754-.177h-3.78q-.375 0-.601.039a1 1 0 0 0-.34.107.32.32 0 0 0-.147.17.7.7 0 0 0-.032.207v.23zM34.617 2.271q0-.229.056-.42a.72.72 0 0 1 .22-.338q.162-.146.453-.23t.748-.083h4.9q.453 0 .746.083.292.084.455.23a.74.74 0 0 1 .22.337q.054.193.055.421-.001.183-.056.376a.74.74 0 0 1-.22.338q-.162.146-.454.238a2.6 2.6 0 0 1-.747.091h-.94v4.215q-.002.644.114 1.179.113.536.372 1.004.258.468.698.905.438.436 1.087.866.52.353.689.797.17.445-.155.935a1.2 1.2 0 0 1-.43.39 1.3 1.3 0 0 1-.545.147q-.179 0-.373-.039a1 1 0 0 1-.372-.16 7.7 7.7 0 0 1-1.322-1.088 9.5 9.5 0 0 1-1.014-1.242q-.422.706-.973 1.303a5.6 5.6 0 0 1-1.249 1.013 2.1 2.1 0 0 1-.973.29q-.275.015-.568-.091a.97.97 0 0 1-.487-.415q-.324-.49-.155-.935.17-.444.689-.797.648-.43 1.087-.88.44-.453.698-.944.259-.49.372-1.043t.114-1.195V3.314h-1.266q-.453 0-.747-.091a1.2 1.2 0 0 1-.454-.238.74.74 0 0 1-.22-.338 1.3 1.3 0 0 1-.056-.376zm9.541.016q-.001-.765.398-1.049.397-.283.918-.282.259 0 .495.06t.413.216q.177.153.293.415.113.26.114.644V5.97h1.023q.453 0 .747.1.29.1.454.252.161.153.22.346.056.191.055.376 0 .23-.056.429a.74.74 0 0 1-.22.345q-.162.147-.453.238a2.5 2.5 0 0 1-.747.092h-1.023v4.613q0 .4-.114.659a1.1 1.1 0 0 1-.293.415 1.05 1.05 0 0 1-.413.215q-.236.06-.495.061-.26 0-.496-.061a1.1 1.1 0 0 1-.422-.215 1 1 0 0 1-.292-.415 1.8 1.8 0 0 1-.106-.659zM56.864 6.884a7.4 7.4 0 0 1-1.234-.636 6 6 0 0 1-1.087-.88 6.3 6.3 0 0 1-1.023.988q-.569.437-1.233.666a3 3 0 0 1-.495.122q-.268.046-.528.017a1.4 1.4 0 0 1-.544-.183.92.92 0 0 1-.399-.476q-.195-.537.018-.919.21-.383.794-.645.6-.258.982-.506.381-.243.6-.537.22-.29.3-.666t.081-.911v-.183q.016-.369.13-.582a.85.85 0 0 1 .299-.33q.187-.114.43-.152a3.3 3.3 0 0 1 .99 0q.243.04.431.17a.93.93 0 0 1 .3.36q.113.229.114.611v.077q.016.584.146.95.129.366.372.62.243.252.601.46.356.207.844.45c.379.196.642.413.788.66q.219.367-.024.904-.275.567-.876.659-.406.047-.78-.108zm-3.098 4.92v.629h7.886q.454 0 .747.069.293.07.454.19.162.123.22.292.056.168.056.351-.001.23-.056.399a.57.57 0 0 1-.22.283q-.162.116-.454.176a3.8 3.8 0 0 1-.747.061H52.45q-.454 0-.714-.077a1 1 0 0 1-.398-.207.55.55 0 0 1-.17-.315 2.4 2.4 0 0 1-.033-.413v-2.3q0-.151.041-.307a.6.6 0 0 1 .17-.276.9.9 0 0 1 .373-.191 2.5 2.5 0 0 1 .648-.07h7.804V9.47h-7.804a2.8 2.8 0 0 1-.648-.06.9.9 0 0 1-.373-.178.53.53 0 0 1-.17-.276 1.4 1.4 0 0 1 0-.681.57.57 0 0 1 .17-.29q.13-.123.373-.208.242-.085.648-.084h9.2q.406 0 .649.084.242.085.372.207a.57.57 0 0 1 .17.29q.04.17.041.322v2.344q0 .2-.04.352a.55.55 0 0 1-.17.268.9.9 0 0 1-.373.177 2.8 2.8 0 0 1-.648.061h-7.804zm6.213-9.517q-.001-.765.398-1.049.397-.283.917-.282.26 0 .496.06.235.06.413.216.177.153.293.415.113.26.114.644v.675h1.184q.454 0 .747.1.292.1.454.252.162.153.22.346.057.191.056.376-.001.23-.056.429a.74.74 0 0 1-.22.345q-.162.147-.454.238a2.5 2.5 0 0 1-.747.092H62.61v.813q0 .399-.114.636a.87.87 0 0 1-.293.36 1 1 0 0 1-.413.16 3 3 0 0 1-.496.04 3 3 0 0 1-.495-.04 1.1 1.1 0 0 1-.422-.16.8.8 0 0 1-.293-.36q-.105-.237-.105-.636zM68.418 11.605h.486q.454 0 .715.092a1 1 0 0 1 .398.238q.139.145.17.337.033.191.033.376 0 .23-.033.421a.65.65 0 0 1-.17.337.94.94 0 0 1-.398.23q-.258.085-.715.084h-1.266q-.454 0-.715-.084a.95.95 0 0 1-.398-.23.63.63 0 0 1-.17-.337 2.5 2.5 0 0 1-.032-.42V2.21q0-.229.032-.42a.63.63 0 0 1 .17-.338.93.93 0 0 1 .398-.23q.26-.084.715-.083h1.038q.454 0 .715.083a.95.95 0 0 1 .398.23q.138.146.17.337a2.6 2.6 0 0 1 0 .797.65.65 0 0 1-.17.338 1 1 0 0 1-.398.238q-.26.09-.715.091h-.26v8.352zm4.088 0h.583q.454 0 .715.092a1 1 0 0 1 .398.238q.139.145.17.337.033.191.033.376 0 .23-.033.421a.65.65 0 0 1-.17.337.94.94 0 0 1-.398.23q-.258.085-.715.084h-1.362q-.454 0-.715-.084a.95.95 0 0 1-.398-.23.63.63 0 0 1-.17-.337 2.5 2.5 0 0 1-.033-.42V2.21q0-.229.032-.42a.63.63 0 0 1 .17-.338.93.93 0 0 1 .399-.23q.258-.084.715-.083h1.037q.454 0 .715.083a.95.95 0 0 1 .398.23.63.63 0 0 1 .17.337 2.5 2.5 0 0 1 0 .797.65.65 0 0 1-.17.338 1 1 0 0 1-.398.238q-.258.09-.715.091h-.26v8.352zm2.271-9.318q0-.765.308-1.049a1.08 1.08 0 0 1 .762-.282c.304 0 .54.095.747.282q.308.284.308 1.05v3.525h.973V2.287q0-.765.308-1.049a1.08 1.08 0 0 1 .762-.282c.304 0 .54.095.747.282q.308.284.308 1.05v10.466q0 .795-.308 1.073a1.1 1.1 0 0 1-.747.277c-.293 0-.557-.092-.762-.277q-.31-.274-.308-1.073V7.927h-.973v4.827q0 .795-.308 1.073a1.1 1.1 0 0 1-.747.277c-.293 0-.557-.092-.762-.277q-.31-.274-.308-1.073zM6.19 1.98H1.078C.502 1.98.032 1.537.032.99S.502 0 1.08 0h5.11c.58 0 1.049.443 1.049.99s-.47.99-1.049.99M6.19 4.702H1.078c-.58 0-1.049-.443-1.049-.99h.002c0-.547.47-.99 1.049-.99h5.11c.58 0 1.05.443 1.05.99s-.47.99-1.05.99zM5.675 5.504h-4.08C.721 5.504 0 6.174 0 7.01v6.384c0 .826.723 1.507 1.595 1.507h4.078c.874 0 1.595-.683 1.595-1.507V7.01c0-.835-.723-1.506-1.595-1.506zm-.101 6.748c0 .494-.437.906-.973.906H2.667c-.536 0-.973-.412-.973-.906V8.059c0-.506.437-.906.973-.906h1.934c.536 0 .973.4.973.906zM14.38 11.85H9.27c-.58 0-1.049-.444-1.049-.99 0-.548.47-.99 1.049-.99h5.11c.58 0 1.05.442 1.05.99 0 .546-.47.99-1.05.99M14.38 9.129H9.27c-.58 0-1.049-.443-1.049-.99s.47-.99 1.049-.99h5.11c.58 0 1.05.443 1.05.99s-.47.99-1.05.99M14.38 14.571H9.27c-.58 0-1.049-.443-1.049-.99s.47-.99 1.049-.99h5.11c.58 0 1.05.443 1.05.99s-.47.99-1.05.99M14.08 2.017l-3.613 3.412a1.094 1.094 0 0 1-1.483 0 .953.953 0 0 1 0-1.401L12.598.616a1.094 1.094 0 0 1 1.484 0 .953.953 0 0 1 0 1.401zM14.867 4.75c0 .534-.458.967-1.025.967-.566 0-1.024-.433-1.024-.967 0-.535.458-.968 1.024-.968s1.025.433 1.025.968"/></svg>