<svg xmlns="http://www.w3.org/2000/svg" width="20" height="20" fill="none" viewBox="0 0 20 20"><g fill="#3B3B3B" clip-path="url(#a)"><path d="M16.095 18.12H3.905a.378.378 0 0 1-.31-.59l2.95-7.76a.37.37 0 0 1 .35-.24h5.94c.15 0 .29.09.345.23l3.26 7.84c.05.115.035.25-.035.35a.37.37 0 0 1-.31.165zM4.46 17.37h11.07l-2.95-7.09H7.15l-2.695 7.09zM10 8.44c-1.81 0-3.28-1.47-3.28-3.28S8.19 1.88 10 1.88s3.28 1.47 3.28 3.28S11.81 8.44 10 8.44m0-5.81a2.533 2.533 0 0 0-2.53 2.53A2.533 2.533 0 0 0 10 7.69a2.533 2.533 0 0 0 2.53-2.53A2.533 2.533 0 0 0 10 2.63"/></g><defs><clipPath id="a"><path fill="#fff" d="M0 0h20v20H0z"/></clipPath></defs></svg>