<svg width="20" height="20" viewBox="0 0 20 20" fill="none" xmlns="http://www.w3.org/2000/svg">
<g clip-path="url(#clip0_44_197)">
<path d="M18.7602 17.875H1.24023V2.125H18.7552V17.875H18.7602ZM1.99023 17.125H18.0052V2.875H1.99023V17.125Z" fill="#3B3B3B"/>
<path d="M10.375 4.8999H9.625V7.7299H10.375V4.8999Z" fill="#3B3B3B"/>
<path d="M10.375 11.77H9.625V14.6H10.375V11.77Z" fill="#3B3B3B"/>
<path d="M13.2421 6.05191L11.2949 8.05005L11.8321 8.57349L13.7792 6.57534L13.2421 6.05191Z" fill="#3B3B3B"/>
<path d="M11.5407 10.8962L11.0698 11.48L13.5255 13.4608L13.9964 12.877L11.5407 10.8962Z" fill="#3B3B3B"/>
<path d="M16.0101 9.50977H11.8501V10.2598H16.0101V9.50977Z" fill="#3B3B3B"/>
<path d="M6.67123 6.05255L6.13428 6.57617L8.08216 8.57363L8.61911 8.05001L6.67123 6.05255Z" fill="#3B3B3B"/>
<path d="M8.36704 10.8924L5.91064 12.8723L6.38131 13.4562L8.8377 11.4763L8.36704 10.8924Z" fill="#3B3B3B"/>
<path d="M8.06479 9.51001H3.90479V10.26H8.06479V9.51001Z" fill="#3B3B3B"/>
</g>
<defs>
<clipPath id="clip0_44_197">
<rect width="20" height="20" fill="white"/>
</clipPath>
</defs>
</svg>
