<svg xmlns="http://www.w3.org/2000/svg" width="20" height="20" fill="none" viewBox="0 0 20 20"><g fill="#3B3B3B" clip-path="url(#a)"><path d="M18.76 17.875H1.24V2.125h17.515v15.75zm-16.77-.75h16.015V2.875H1.99z"/><path d="M10.375 4.9h-.75v2.83h.75zM10.375 11.77h-.75v2.83h.75zM13.242 6.052 11.295 8.05l.537.523 1.947-1.998zM11.54 10.896l-.47.584 2.455 1.98.471-.583zM16.01 9.51h-4.16v.75h4.16zM6.671 6.053l-.537.523 1.948 1.998.537-.524zM8.367 10.892l-2.456 1.98.47.584 2.457-1.98zM8.065 9.51h-4.16v.75h4.16z"/></g><defs><clipPath id="a"><path fill="#fff" d="M0 0h20v20H0z"/></clipPath></defs></svg>