<svg xmlns="http://www.w3.org/2000/svg" width="20" height="20" fill="none" viewBox="0 0 20 20"><g fill="#00D3BA" clip-path="url(#a)"><path d="M13.615 9.945c-1.35 0-2.45-1.1-2.45-2.45s1.1-2.45 2.45-2.45 2.45 1.1 2.45 2.45-1.1 2.45-2.45 2.45m0-4.115c-.92 0-1.67.75-1.67 1.67s.75 1.67 1.67 1.67 1.67-.75 1.67-1.67-.75-1.67-1.67-1.67M6.13 7.035c-1.35 0-2.45-1.1-2.45-2.45s1.1-2.45 2.45-2.45 2.45 1.1 2.45 2.45-1.1 2.45-2.45 2.45m0-4.115c-.92 0-1.67.75-1.67 1.67s.75 1.67 1.67 1.67S7.8 5.51 7.8 4.59s-.75-1.67-1.67-1.67M18.455 17.86H9.27v-.78h8.625l-1.9-5.135h-4.48l-1.005 2.94-.74-.25 1.095-3.205a.39.39 0 0 1 .37-.265h5.03c.165 0 .31.1.365.255l2.185 5.915a.387.387 0 0 1-.365.525z"/><path d="M10.45 14.945H1.545a.391.391 0 0 1-.37-.52l2.12-5.915a.39.39 0 0 1 .365-.26h4.875c.17 0 .32.11.37.27l1.06 3.205-.74.245-.97-2.935H3.94L2.1 14.17h8.35v.78z"/></g><defs><clipPath id="a"><path fill="#fff" d="M0 0h20v20H0z"/></clipPath></defs></svg>