<svg xmlns="http://www.w3.org/2000/svg" width="20" height="20" fill="none" viewBox="0 0 20 20"><g clip-path="url(#a)"><path fill="#3B3B3B" d="M15.48 18.505h-4.135a.38.38 0 0 1-.375-.375v-6.665H8.85v5.005H8.1v-5.38c0-.205.17-.375.375-.375h2.87c.205 0 .375.17.375.375v6.665h3.385V10.69c0-.205.17-.375.375-.375h2.68l-8.07-8.07h-.175l-8.075 8.07h2.68c.205 0 .375.17.375.375v7.065h3.76v.75H4.52a.38.38 0 0 1-.375-.375v-7.065H.935a.37.37 0 0 1-.345-.23.39.39 0 0 1 .08-.41l8.82-8.82c.07-.07.165-.11.265-.11h.485c.1 0 .195.04.265.11l8.82 8.82a.377.377 0 0 1-.265.64h-3.21v7.065c0 .205-.17.375-.375.375z"/></g><defs><clipPath id="a"><path fill="#fff" d="M0 0h20v20H0z"/></clipPath></defs></svg>